# xmcd
#
# Track frame offsets: 
#        182
#        22637
#        40052
#        54632
#
# Disc length: 943 seconds
#
# Revision: 0
# Processed by: cddbd v1.5.2PL0 Copyright (c) Steve Scherf et al.
# Submitted via: ExactAudioCopy v0.99pb4
#
DISCID=2303ad04
DTITLE=First Class - CD Single Classic
DYEAR=1900
DGENRE=Pop
TTITLE0=Beach Baby
TTITLE1=Surfer Queen
TTITLE2=Disco Kid
TTITLE3=Bobby Dazzler
EXTD=
EXTT0=
EXTT1=
EXTT2=
EXTT3=
PLAYORDER=
